<?xml version="1.0" encoding="utf-8"?>
<!-- Generator: Adobe Illustrator 23.0.3, SVG Export Plug-In . SVG Version: 6.00 Build 0)  -->
<svg version="1.2" baseProfile="tiny" xmlns="http://www.w3.org/2000/svg" xmlns:xlink="http://www.w3.org/1999/xlink" x="0px"
	 y="0px" viewBox="0 0 1270.2 345.3" xml:space="preserve">
<g id="Layer_1">
	<g>
		<g>
			<path d="M195,30.1v175h-40.5v-71.7H75v71.7H34.5v-175H75v69h79.5v-69H195z"/>
			<path d="M274.4,198.2c-11.3-5.9-20-14.1-26.4-24.6c-6.3-10.5-9.5-22.4-9.5-35.8c0-13.3,3.2-25.2,9.5-35.7
				c6.3-10.5,15.1-18.7,26.4-24.6c11.3-5.9,24-8.9,38.1-8.9c14.2,0,26.8,3,38,8.9c11.2,5.9,19.9,14.1,26.3,24.6
				c6.3,10.5,9.5,22.4,9.5,35.7c0,13.3-3.2,25.3-9.5,35.8c-6.3,10.5-15.1,18.7-26.3,24.6c-11.2,5.9-23.8,8.9-38,8.9
				C298.3,207.1,285.6,204.1,274.4,198.2z M337.1,165c6.4-6.8,9.6-15.8,9.6-27.1c0-11.3-3.2-20.4-9.6-27.1
				c-6.4-6.8-14.6-10.1-24.6-10.1s-18.3,3.4-24.8,10.1s-9.8,15.8-9.8,27.1c0,11.3,3.3,20.4,9.8,27.1s14.8,10.1,24.8,10.1
				S330.7,171.7,337.1,165z"/>
			<path d="M483.1,73.6c7.9-3.3,17-5,27.4-5v36c-4.3-0.3-7.3-0.5-8.8-0.5c-11.2,0-19.9,3.1-26.3,9.4c-6.3,6.3-9.5,15.6-9.5,28.1
				v63.5h-39V70.6h37.3v17.8C468.9,81.9,475.2,76.9,483.1,73.6z"/>
			<path d="M550.5,45.6c-4.5-4.2-6.8-9.3-6.8-15.5c0-6.2,2.3-11.3,6.8-15.5c4.5-4.2,10.3-6.3,17.5-6.3c7.2,0,13,2,17.5,6
				s6.8,9,6.8,15c0,6.5-2.3,11.9-6.8,16.1s-10.3,6.4-17.5,6.4C560.8,51.9,555,49.8,550.5,45.6z M548.5,70.6h39v134.5h-39V70.6z"/>
			<path d="M749.2,175.1v30h-120v-23.5l68.5-81H631v-30h116v23.5l-68.5,81H749.2z"/>
			<path d="M813.1,198.2c-11.3-5.9-20-14.1-26.4-24.6c-6.3-10.5-9.5-22.4-9.5-35.8c0-13.3,3.2-25.2,9.5-35.7
				c6.3-10.5,15.1-18.7,26.4-24.6c11.3-5.9,24-8.9,38.1-8.9c14.2,0,26.8,3,38,8.9c11.2,5.9,19.9,14.1,26.3,24.6
				c6.3,10.5,9.5,22.4,9.5,35.7c0,13.3-3.2,25.3-9.5,35.8c-6.3,10.5-15.1,18.7-26.3,24.6c-11.2,5.9-23.8,8.9-38,8.9
				C837.1,207.1,824.4,204.1,813.1,198.2z M875.9,165c6.4-6.8,9.6-15.8,9.6-27.1c0-11.3-3.2-20.4-9.6-27.1
				c-6.4-6.8-14.6-10.1-24.6-10.1s-18.3,3.4-24.8,10.1s-9.8,15.8-9.8,27.1c0,11.3,3.3,20.4,9.8,27.1s14.8,10.1,24.8,10.1
				S869.5,171.7,875.9,165z"/>
			<path d="M1087.9,83.6c10.3,10,15.4,24.8,15.4,44.5v77h-39v-71c0-10.7-2.3-18.6-7-23.9c-4.7-5.3-11.4-7.9-20.3-7.9
				c-9.8,0-17.7,3-23.5,9.1c-5.8,6.1-8.8,15.1-8.8,27.1v66.5h-39V70.6h37.3v15.8c5.2-5.7,11.6-10,19.3-13.1
				c7.7-3.1,16.1-4.6,25.3-4.6C1064.2,68.6,1077.6,73.6,1087.9,83.6z"/>
			<path d="M1165.7,203c-10.7-2.8-19.2-6.2-25.5-10.4l13-28c6,3.8,13.3,7,21.8,9.4c8.5,2.4,16.8,3.6,25,3.6
				c16.5,0,24.8-4.1,24.8-12.3c0-3.8-2.3-6.6-6.8-8.3c-4.5-1.7-11.4-3.1-20.8-4.3c-11-1.7-20.1-3.6-27.3-5.8
				c-7.2-2.2-13.4-6-18.6-11.5s-7.9-13.3-7.9-23.5c0-8.5,2.5-16,7.4-22.6c4.9-6.6,12.1-11.7,21.5-15.4c9.4-3.7,20.5-5.5,33.4-5.5
				c9.5,0,19,1,28.4,3.1c9.4,2.1,17.2,5,23.4,8.6l-13,27.8c-11.8-6.7-24.8-10-38.8-10c-8.3,0-14.6,1.2-18.8,3.5
				c-4.2,2.3-6.3,5.3-6.3,9c0,4.2,2.3,7.1,6.8,8.8c4.5,1.7,11.7,3.3,21.5,4.8c11,1.8,20,3.8,27,5.9c7,2.1,13.1,5.9,18.3,11.4
				c5.2,5.5,7.8,13.2,7.8,23c0,8.3-2.5,15.8-7.5,22.3c-5,6.5-12.3,11.5-21.9,15.1c-9.6,3.6-21,5.4-34.1,5.4
				C1187.3,207.1,1176.4,205.7,1165.7,203z"/>
		</g>
		<g>
			<path d="M104.5,338.4v6.9H32v-105h70.2v6.9H39.7v41.4h56v6.8h-56v43.1H104.5z"/>
			<path d="M198.2,234v111.3h-7.3v-18.5c-3.1,6.1-7.5,10.8-13.1,14.1c-5.6,3.3-12,5-19,5c-7.3,0-13.9-1.7-19.8-5.1
				c-5.9-3.4-10.5-8.1-13.9-14.1c-3.4-6-5-12.8-5-20.5c0-7.7,1.7-14.6,5-20.6c3.3-6,8-10.7,13.9-14.1c5.9-3.3,12.5-5,19.8-5
				c7,0,13.3,1.6,18.8,4.9c5.5,3.3,9.9,7.9,13.1,13.8V234H198.2z M175.4,335c4.7-2.8,8.5-6.7,11.3-11.7c2.7-5,4.1-10.7,4.1-17.1
				c0-6.4-1.4-12.1-4.1-17.1c-2.8-5-6.5-8.9-11.3-11.7c-4.8-2.8-10.1-4.2-16.1-4.2s-11.4,1.4-16.1,4.2c-4.8,2.8-8.5,6.7-11.3,11.7
				c-2.8,5-4.1,10.7-4.1,17.1c0,6.4,1.4,12.1,4.1,17.1c2.7,5,6.5,8.9,11.3,11.7c4.7,2.8,10.1,4.2,16.1,4.2S170.6,337.8,175.4,335z"
				/>
			<path d="M229.3,246.2c-1.2-1.1-1.8-2.6-1.8-4.3c0-1.7,0.6-3.2,1.8-4.4c1.2-1.2,2.6-1.8,4.4-1.8c1.7,0,3.1,0.6,4.3,1.7
				c1.2,1.2,1.8,2.6,1.8,4.3c0,1.7-0.6,3.2-1.8,4.4c-1.2,1.2-2.7,1.8-4.3,1.8C231.9,248,230.5,247.4,229.3,246.2z M229.9,267h7.5
				v78.3h-7.5V267z"/>
			<path d="M307.9,340.4c-1.9,1.8-4.3,3.2-7.1,4.1s-5.8,1.4-8.9,1.4c-6.8,0-12.1-1.9-15.8-5.6c-3.7-3.8-5.5-9-5.5-15.7v-51.1h-14.4
				V267h14.4v-17.1h7.5V267h24.9v6.5H278v50.4c0,5.1,1.2,9,3.7,11.6c2.4,2.7,6.1,4,10.9,4c4.9,0,8.9-1.4,12.1-4.4L307.9,340.4z"/>
			<path d="M336.5,340.8c-6-3.4-10.6-8.1-14-14.2c-3.4-6-5.1-12.9-5.1-20.5c0-7.6,1.7-14.4,5.1-20.5c3.4-6,8.1-10.8,14-14.2
				c5.9-3.4,12.6-5.1,20-5.1c7.4,0,14.1,1.7,20,5.1c5.9,3.4,10.6,8.1,14,14.2c3.4,6.1,5.1,12.9,5.1,20.5c0,7.6-1.7,14.4-5.1,20.5
				c-3.4,6.1-8.1,10.8-14,14.2c-6,3.4-12.6,5.1-20,5.1C349.1,345.9,342.4,344.2,336.5,340.8z M372.6,335c4.7-2.8,8.5-6.7,11.3-11.7
				c2.7-5,4.1-10.7,4.1-17.1c0-6.4-1.4-12.1-4.1-17.1c-2.8-5-6.5-8.9-11.3-11.7c-4.8-2.8-10.1-4.2-16.1-4.2s-11.4,1.4-16.1,4.2
				c-4.8,2.8-8.5,6.7-11.3,11.7c-2.8,5-4.1,10.7-4.1,17.1c0,6.4,1.4,12.1,4.1,17.1c2.7,5,6.5,8.9,11.3,11.7
				c4.7,2.8,10.1,4.2,16.1,4.2S367.9,337.8,372.6,335z"/>
			<path d="M437.3,271c5.1-3,11.3-4.6,18.6-4.6v7.3l-1.8-0.2c-8.7,0-15.5,2.7-20.4,8.2c-4.9,5.5-7.3,13-7.3,22.7v40.8h-7.5V267h7.2
				v17.1C428.5,278.4,432.2,274,437.3,271z"/>
			<path d="M476,246.2c-1.2-1.1-1.8-2.6-1.8-4.3c0-1.7,0.6-3.2,1.8-4.4c1.2-1.2,2.6-1.8,4.4-1.8c1.7,0,3.1,0.6,4.3,1.7
				c1.2,1.2,1.8,2.6,1.8,4.3c0,1.7-0.6,3.2-1.8,4.4c-1.2,1.2-2.7,1.8-4.3,1.8C478.7,248,477.2,247.4,476,246.2z M476.6,267h7.5v78.3
				h-7.5V267z"/>
			<path d="M564.5,273.8c5.2,5,7.8,12.2,7.8,21.8v49.6h-7.2v-14c-2.5,4.6-6.2,8.2-11,10.7s-10.6,3.8-17.3,3.8
				c-8.7,0-15.6-2-20.6-6.2c-5.1-4.1-7.6-9.5-7.6-16.2c0-6.5,2.3-11.8,7-15.8c4.6-4,12.1-6.1,22.3-6.1h26.9v-6.3
				c0-7.3-2-12.8-5.9-16.6c-4-3.8-9.7-5.7-17.3-5.7c-5.2,0-10.2,0.9-14.9,2.7c-4.8,1.8-8.8,4.2-12.1,7.2l-3.8-5.4
				c3.9-3.5,8.6-6.2,14.1-8.2c5.5-2,11.3-2.9,17.3-2.9C551.9,266.4,559.3,268.9,564.5,273.8z M554.6,335.3c4.5-3,8-7.3,10.3-13
				v-14.7h-26.7c-7.7,0-13.3,1.4-16.7,4.2c-3.5,2.8-5.2,6.7-5.2,11.5c0,5.1,1.9,9.1,5.7,12.1c3.8,3,9.2,4.4,16,4.4
				C544.5,339.8,550,338.3,554.6,335.3z"/>
			<path d="M603.2,234h7.5v111.3h-7.5V234z"/>
			<path d="M682.7,343.1c-5.7-1.9-10.2-4.3-13.4-7.2l3.5-6c3.2,2.7,7.3,5,12.4,6.8c5,1.8,10.3,2.7,15.8,2.7c7.9,0,13.7-1.3,17.5-3.9
				c3.8-2.6,5.6-6.2,5.6-10.8c0-3.3-1-5.9-3.1-7.8c-2.1-1.9-4.6-3.3-7.6-4.2c-3-0.9-7.2-1.8-12.5-2.8c-6.2-1.1-11.2-2.3-15-3.6
				c-3.8-1.3-7-3.4-9.8-6.3c-2.7-2.9-4-6.9-4-12c0-6.2,2.6-11.3,7.7-15.4c5.1-4,12.5-6.1,22-6.1c5,0,9.9,0.7,14.8,2.1
				c4.9,1.4,8.9,3.3,12,5.5l-3.5,6c-3.2-2.3-6.9-4-11-5.3c-4.1-1.2-8.3-1.8-12.6-1.8c-7.3,0-12.8,1.3-16.5,4
				c-3.7,2.7-5.5,6.3-5.5,10.7c0,3.5,1,6.2,3.1,8.2c2.1,2,4.7,3.4,7.7,4.3c3,1,7.3,2,12.8,3.1c6.1,1.1,11,2.3,14.8,3.5
				c3.8,1.3,6.9,3.3,9.5,6.1c2.6,2.8,3.9,6.7,3.9,11.5c0,6.5-2.7,11.7-8.1,15.6c-5.4,3.9-13,5.9-22.8,5.9
				C694.4,345.9,688.4,345,682.7,343.1z"/>
			<path d="M818.8,308h-67.3c0.2,6.1,1.7,11.5,4.6,16.3c2.9,4.8,6.8,8.4,11.8,11c5,2.6,10.5,3.9,16.7,3.9c5.1,0,9.8-0.9,14.2-2.8
				c4.3-1.8,8-4.6,10.9-8.2l4.3,5c-3.4,4.1-7.7,7.3-12.8,9.4c-5.2,2.2-10.7,3.3-16.7,3.3c-7.8,0-14.8-1.7-20.9-5.1
				c-6.1-3.4-10.9-8.1-14.3-14.1c-3.5-6-5.2-12.8-5.2-20.5c0-7.6,1.6-14.4,4.9-20.5c3.2-6,7.7-10.8,13.4-14.2
				c5.7-3.4,12.1-5.1,19.2-5.1c7.1,0,13.5,1.7,19.1,5c5.6,3.4,10.1,8,13.4,14c3.2,6,4.9,12.8,4.9,20.4L818.8,308z M766.7,276.7
				c-4.4,2.5-7.9,5.9-10.6,10.4c-2.7,4.5-4.2,9.5-4.6,15.1h60c-0.3-5.6-1.8-10.6-4.5-15c-2.7-4.4-6.3-7.8-10.6-10.3
				c-4.4-2.5-9.4-3.8-14.9-3.8C776.1,273,771.1,274.2,766.7,276.7z"/>
			<path d="M860.6,271c5.1-3,11.3-4.6,18.6-4.6v7.3l-1.8-0.2c-8.7,0-15.5,2.7-20.4,8.2c-4.9,5.5-7.3,13-7.3,22.7v40.8h-7.5V267h7.2
				v17.1C851.8,278.4,855.5,274,860.6,271z"/>
			<path d="M966.4,267L931,345.3h-7.6L888.1,267h8l31.2,70l31.5-70H966.4z"/>
			<path d="M982.1,246.2c-1.2-1.1-1.8-2.6-1.8-4.3c0-1.7,0.6-3.2,1.8-4.4c1.2-1.2,2.6-1.8,4.4-1.8c1.7,0,3.1,0.6,4.3,1.7
				c1.2,1.2,1.8,2.6,1.8,4.3c0,1.7-0.6,3.2-1.8,4.4c-1.2,1.2-2.7,1.8-4.3,1.8C984.8,248,983.3,247.4,982.1,246.2z M982.7,267h7.5
				v78.3h-7.5V267z"/>
			<path d="M1032.5,340.8c-6-3.4-10.7-8.1-14.1-14.2c-3.4-6-5.1-12.9-5.1-20.5c0-7.7,1.7-14.6,5.1-20.6c3.4-6,8.1-10.7,14.1-14.1
				c6-3.3,12.8-5,20.4-5c6.3,0,12,1.2,17.2,3.7c5.1,2.5,9.3,6,12.5,10.7l-5.6,4c-2.8-3.9-6.3-6.8-10.4-8.8c-4.2-2-8.7-2.9-13.7-2.9
				c-6.1,0-11.6,1.4-16.4,4.1c-4.9,2.8-8.7,6.6-11.4,11.6c-2.8,5-4.1,10.8-4.1,17.3c0,6.5,1.4,12.3,4.1,17.3
				c2.7,5,6.5,8.9,11.4,11.6c4.8,2.8,10.3,4.1,16.4,4.1c5,0,9.6-1,13.7-2.9c4.1-1.9,7.6-4.9,10.4-8.8l5.6,4
				c-3.2,4.7-7.4,8.3-12.5,10.7c-5.2,2.5-10.9,3.7-17.2,3.7C1045.3,345.9,1038.5,344.2,1032.5,340.8z"/>
			<path d="M1169.9,308h-67.3c0.2,6.1,1.7,11.5,4.6,16.3c2.9,4.8,6.8,8.4,11.8,11c5,2.6,10.5,3.9,16.7,3.9c5.1,0,9.8-0.9,14.2-2.8
				c4.3-1.8,8-4.6,10.9-8.2l4.3,5c-3.4,4.1-7.7,7.3-12.8,9.4c-5.2,2.2-10.7,3.3-16.7,3.3c-7.8,0-14.8-1.7-20.9-5.1
				c-6.1-3.4-10.9-8.1-14.3-14.1c-3.5-6-5.2-12.8-5.2-20.5c0-7.6,1.6-14.4,4.9-20.5c3.2-6,7.7-10.8,13.4-14.2
				c5.7-3.4,12.1-5.1,19.2-5.1c7.1,0,13.5,1.7,19.1,5c5.6,3.4,10.1,8,13.4,14c3.2,6,4.9,12.8,4.9,20.4L1169.9,308z M1117.9,276.7
				c-4.4,2.5-7.9,5.9-10.6,10.4c-2.7,4.5-4.2,9.5-4.6,15.1h60c-0.3-5.6-1.8-10.6-4.5-15c-2.7-4.4-6.3-7.8-10.6-10.3
				c-4.4-2.5-9.4-3.8-14.9-3.8C1127.2,273,1122.3,274.2,1117.9,276.7z"/>
			<path d="M1195.1,343.1c-5.7-1.9-10.2-4.3-13.4-7.2l3.5-6c3.2,2.7,7.3,5,12.4,6.8c5,1.8,10.3,2.7,15.8,2.7
				c7.9,0,13.7-1.3,17.5-3.9c3.8-2.6,5.6-6.2,5.6-10.8c0-3.3-1-5.9-3.1-7.8c-2.1-1.9-4.6-3.3-7.6-4.2c-3-0.9-7.2-1.8-12.5-2.8
				c-6.2-1.1-11.2-2.3-15-3.6c-3.8-1.3-7-3.4-9.8-6.3c-2.7-2.9-4-6.9-4-12c0-6.2,2.6-11.3,7.7-15.4c5.1-4,12.5-6.1,22-6.1
				c5,0,9.9,0.7,14.8,2.1c4.9,1.4,8.9,3.3,12,5.5l-3.5,6c-3.2-2.3-6.9-4-11-5.3c-4.1-1.2-8.3-1.8-12.6-1.8c-7.3,0-12.8,1.3-16.5,4
				c-3.7,2.7-5.5,6.3-5.5,10.7c0,3.5,1,6.2,3.1,8.2c2.1,2,4.7,3.4,7.7,4.3c3,1,7.3,2,12.8,3.1c6.1,1.1,11,2.3,14.8,3.5
				c3.8,1.3,6.9,3.3,9.5,6.1c2.6,2.8,3.9,6.7,3.9,11.5c0,6.5-2.7,11.7-8.1,15.6c-5.4,3.9-13,5.9-22.8,5.9
				C1206.8,345.9,1200.8,345,1195.1,343.1z"/>
		</g>
	</g>
</g>
<g id="Layer_2">
</g>
</svg>
