<?xml version="1.0" encoding="utf-8"?>
<!-- Generator: Adobe Illustrator 23.0.3, SVG Export Plug-In . SVG Version: 6.00 Build 0)  -->
<svg version="1.2" baseProfile="tiny" xmlns="http://www.w3.org/2000/svg" xmlns:xlink="http://www.w3.org/1999/xlink" x="0px"
	 y="0px" viewBox="0 0 651.1 938.8" xml:space="preserve">
<g id="Layer_1">
	<path d="M187.9,208.5v107.2c-33.9,13-65.3,31.2-93.1,53.5V8.5c0-7.6,7.6-11.3,11.9-5.8l24,30.7C167.4,80.5,187.9,143.2,187.9,208.5
		z"/>
	<path d="M651.1,519.2c-56.8-58-133.7-96.3-219.4-103.6v501.7c0,7.6-7.6,11.3-11.9,5.8l-23.2-29.8c-37.2-47.7-58-111.2-58-177.3
		v-296c-56.1,10.2-107.5,33.8-150.7,67.4v274.2c0,7.6-7.6,11.3-11.9,5.8l-23.2-29.8c-30.9-39.7-50.5-90.2-56.2-144.1
		c-28.1,50.3-44.1,108.3-44.1,170c0,63.9,17.2,123.8,47.2,175.4C38,875.8,0,789.6,0,694.5c0-189.3,150.7-343.4,338.6-349V164.2
		c0-7.6,7.6-11.3,11.9-5.8l23.9,30.7c35.1,45,55.3,104.1,57.1,166.1C525.1,377.8,603.9,438.2,651.1,519.2z"/>
</g>
<g id="Layer_2">
</g>
</svg>
