<?xml version="1.0" encoding="utf-8"?>
<!-- Generator: Adobe Illustrator 23.0.3, SVG Export Plug-In . SVG Version: 6.00 Build 0)  -->
<svg version="1.2" baseProfile="tiny" xmlns="http://www.w3.org/2000/svg" xmlns:xlink="http://www.w3.org/1999/xlink" x="0px"
	 y="0px" viewBox="0 0 651.1 938.8" xml:space="preserve">
<g id="Layer_1">
	<path d="M176,767.3l-23.2-29.8c-37.2-47.8-58-111.2-58-177.3V8.5c0-7.6,7.6-11.3,11.9-5.8l23.9,30.7
		c36.8,47.2,57.3,109.9,57.3,175.1v553C187.9,769.1,180.3,772.8,176,767.3z"/>
	<path fill="#FFFFFF" d="M615,466.3c-63.4-64.7-151.7-104.9-249.5-104.9c-192.8,0-349.1,156.3-349.1,349.1
		c0,63.9,17.2,123.8,47.2,175.4c-61.6-63-99.6-149.2-99.6-244.2c0-192.8,156.3-349.1,349.1-349.1C441.9,292.5,554.5,362.4,615,466.3
		z"/>
	<path d="M419.8,923.1l-23.2-29.8c-37.2-47.8-58-111.2-58-177.3V164.2c0-7.6,7.6-11.3,11.9-5.8l23.9,30.7
		c36.8,47.2,57.3,109.9,57.3,175.1v553C431.7,924.8,424.1,928.6,419.8,923.1z"/>
	<path d="M651.1,519.2c-63.4-64.7-151.7-104.9-249.5-104.9c-192.8,0-349.1,156.3-349.1,349.1c0,63.9,17.2,123.8,47.2,175.4
		C38,875.8,0,789.6,0,694.5c0-192.8,156.3-349.1,349.1-349.1C478,345.4,590.6,415.3,651.1,519.2z"/>
</g>
<g id="Layer_2">
</g>
</svg>
